<svg width="1636" height="309" viewBox="0 0 1636 309" fill="none" xmlns="http://www.w3.org/2000/svg">
<path d="M253.609 251.188L280.581 277.814V284.73H181.337L131.543 174.767V169.926L138.804 168.543C161.973 160.935 177.879 142.954 177.879 113.561C177.879 82.7854 160.244 59.9628 128.776 59.9628H119.786V254.992L143.3 277.814V284.73H24V277.814L47.5141 254.992V82.7854L24 59.9628V53.0469H166.468C216.954 53.0469 254.992 75.1778 254.992 114.944C254.992 152.982 220.412 175.459 166.122 175.459H156.786C166.468 176.15 177.534 177.879 188.599 182.029C204.851 187.907 221.104 198.973 234.59 220.412C240.468 230.44 247.039 240.468 253.609 251.188Z" fill="black"/>
<path d="M486.376 252.917L488.797 255.338C479.115 278.16 460.442 284.73 440.731 284.73C426.554 284.73 402.694 279.198 395.778 249.459H392.666C389.553 265.366 377.45 284.73 343.908 284.73C310.712 284.73 288.581 263.291 288.581 234.59C288.581 197.59 316.936 181.337 359.469 181.337H393.703V126.01C393.703 118.748 390.591 111.832 383.675 108.374L307.6 170.272H299.992V112.87C333.189 103.533 357.048 99.3835 373.647 99.3835C431.74 99.3835 461.825 116.328 461.825 167.505V239.777C461.825 250.842 467.012 258.45 474.273 258.45C478.077 258.45 482.573 257.067 486.376 252.917ZM379.525 252.226C385.404 252.226 393.703 248.422 393.703 226.982V188.253L390.245 188.599C364.31 193.44 364.31 212.459 364.31 224.908C364.31 243.235 370.535 252.226 379.525 252.226Z" fill="black"/>
<path d="M673.845 220.758L679.032 223.179C664.508 263.637 630.966 284.73 591.199 284.73C536.218 284.73 496.797 247.384 496.797 191.711C496.797 136.73 542.096 99.3835 598.461 99.3835C611.947 99.3835 625.433 101.113 639.611 104.916L667.274 101.458H674.19V184.795H667.62L613.33 108.72C609.872 106.645 608.143 106.299 603.994 106.299C577.022 106.299 571.489 136.038 571.489 169.234C571.489 221.795 590.162 247.73 627.162 247.73C645.489 247.73 660.013 242.197 673.845 220.758Z" fill="black"/>
<path d="M745.471 94.1967C724.032 94.1967 709.163 78.9816 709.163 58.9254C709.163 40.2524 724.032 24 745.471 24C766.911 24 782.126 40.2524 782.126 58.9254C782.126 78.9816 766.911 94.1967 745.471 94.1967ZM780.742 254.992L804.257 277.814V284.73H687.032V277.814L710.546 254.992V139.15L687.032 116.328V109.412H780.742V254.992Z" fill="black"/>
<path d="M914.612 99.3835C970.631 99.3835 1017.31 136.73 1017.31 192.057C1017.31 247.384 970.631 284.73 914.612 284.73C858.939 284.73 812.257 247.384 812.257 192.057C812.257 136.73 858.939 99.3835 914.612 99.3835ZM914.612 277.814C934.323 277.814 941.93 259.487 941.93 192.057C941.93 123.589 934.323 106.299 914.612 106.299C895.248 106.299 887.64 123.589 887.64 192.057C887.64 259.487 895.248 277.814 914.612 277.814Z" fill="black"/>
<path d="M1232.45 254.992L1255.96 277.814V284.73H1144.96V277.814L1162.25 254.992V170.272C1162.25 150.216 1156.37 140.533 1143.23 140.533C1126.98 140.533 1119.02 158.861 1119.02 176.496V254.992L1136.31 277.814V284.73H1025.31V277.814L1048.83 254.992V139.15L1025.31 116.328V109.412H1119.02V151.253H1120.41C1129.4 124.972 1143.58 104.57 1177.46 104.57C1209.97 104.57 1232.45 123.589 1232.45 168.543V254.992Z" fill="black"/>
<path d="M1461.76 252.917L1464.18 255.338C1454.49 278.16 1435.82 284.73 1416.11 284.73C1401.93 284.73 1378.07 279.198 1371.16 249.459H1368.04C1364.93 265.366 1352.83 284.73 1319.29 284.73C1286.09 284.73 1263.96 263.291 1263.96 234.59C1263.96 197.59 1292.32 181.337 1334.85 181.337H1369.08V126.01C1369.08 118.748 1365.97 111.832 1359.05 108.374L1282.98 170.272H1275.37V112.87C1308.57 103.533 1332.43 99.3835 1349.03 99.3835C1407.12 99.3835 1437.2 116.328 1437.2 167.505V239.777C1437.2 250.842 1442.39 258.45 1449.65 258.45C1453.46 258.45 1457.95 257.067 1461.76 252.917ZM1354.9 252.226C1360.78 252.226 1369.08 248.422 1369.08 226.982V188.253L1365.62 188.599C1339.69 193.44 1339.69 212.459 1339.69 224.908C1339.69 243.235 1345.91 252.226 1354.9 252.226Z" fill="black"/>
<path d="M1607.38 239.431L1611.19 241.16C1604.96 265.712 1586.63 284.73 1555.17 284.73C1524.39 284.73 1496.04 263.637 1496.04 221.45V77.5984L1472.18 53.0469V47.8599H1566.23V224.908C1566.23 239.431 1574.19 249.113 1588.02 249.113C1596.66 249.113 1602.89 245.655 1607.38 239.431Z" fill="black"/>
</svg>
